<svg width="140" height="20" viewBox="0 0 140 20" fill="none" xmlns="http://www.w3.org/2000/svg">
  <path d="M8.19957 3.03688V0H2.4295L0 2.4295V8.19957H3.03688V3.03688H8.19957Z" fill="#00DF82" />
  <path
    d="M18.3379 16.2977C17.4689 16.2977 16.6899 16.1329 16.0007 15.8033C15.3265 15.4587 14.8246 14.9868 14.495 14.3875H14.3827L14.0905 16.0954H11.2365V0H13.1497L14.3602 1.21475V5.82532H14.495C14.8246 5.22605 15.3265 4.76161 16.0007 4.432C16.6899 4.08742 17.4689 3.91513 18.3379 3.91513C19.1169 3.91513 19.8211 4.04247 20.4503 4.29717C21.0796 4.55186 21.6114 4.91143 22.0459 5.37587C22.4954 5.8403 22.84 6.40213 23.0797 7.06133C23.3194 7.70555 23.4392 8.42469 23.4392 9.21873V10.9716C23.4392 12.0353 23.2295 12.9717 22.81 13.7807C22.3905 14.5748 21.7987 15.1965 21.0346 15.646C20.2706 16.0805 19.3716 16.2977 18.3379 16.2977ZM17.2367 13.9605C17.836 13.9605 18.3529 13.8556 18.7873 13.6459C19.2368 13.4212 19.5814 13.1065 19.8211 12.702C20.0608 12.2825 20.1807 11.7956 20.1807 11.2413V8.97153C20.1807 8.38723 20.0608 7.90032 19.8211 7.51079C19.5814 7.10628 19.2368 6.79166 18.7873 6.56693C18.3529 6.3422 17.836 6.22983 17.2367 6.22983C16.5925 6.22983 16.0157 6.37965 15.5063 6.67929C14.9969 6.97893 14.6149 7.39842 14.3602 7.93777V12.275C14.6299 12.7994 15.0119 13.2114 15.5063 13.511C16.0157 13.8107 16.5925 13.9605 17.2367 13.9605Z"
    fill="#F1F7F7"
  />
  <path
    d="M29.8136 16.2977C29.0196 16.2977 28.308 16.1703 27.6787 15.9156C27.0645 15.6609 26.5326 15.3014 26.0831 14.8369C25.6337 14.3725 25.2891 13.8107 25.0494 13.1515C24.8097 12.4923 24.6898 11.7656 24.6898 10.9716V9.24117C24.6898 8.17746 24.8996 7.24858 25.3191 6.45454C25.7386 5.64551 26.3303 5.02376 27.0944 4.58929C27.8585 4.13983 28.7649 3.9151 29.8136 3.9151C30.6676 3.9151 31.4317 4.08739 32.1059 4.43198C32.795 4.76158 33.3044 5.22602 33.634 5.8253H33.7689L34.061 3.94795H36.9151V16.0954H34.061L33.7689 14.365H33.634C33.3044 14.9793 32.795 15.4587 32.1059 15.8033C31.4317 16.1329 30.6676 16.2977 29.8136 16.2977ZM30.8923 13.9605C31.5515 13.9605 32.1283 13.8107 32.6227 13.511C33.1321 13.2114 33.5142 12.7919 33.7689 12.2525V7.93775C33.5142 7.41338 33.1321 7.00138 32.6227 6.70174C32.1283 6.4021 31.5515 6.25228 30.8923 6.25228C30.2931 6.25228 29.7762 6.36465 29.3417 6.58937C28.9072 6.79912 28.5626 7.10625 28.308 7.51076C28.0682 7.90029 27.9484 8.38721 27.9484 8.9715V11.2413C27.9484 11.7956 28.0682 12.2825 28.308 12.702C28.5626 13.1215 28.9072 13.4361 29.3417 13.6459C29.7762 13.8556 30.2931 13.9605 30.8923 13.9605Z"
    fill="#F1F7F7"
  />
  <path
    d="M94.1729 16.2977C93.3939 16.2977 92.6897 16.1703 92.0605 15.9156C91.4462 15.661 90.9144 15.3014 90.4649 14.8369C90.0155 14.3725 89.6709 13.8107 89.4312 13.1515C89.1914 12.4923 89.0716 11.7657 89.0716 10.9716V9.2412C89.0716 8.17748 89.2813 7.24861 89.7008 6.45456C90.1203 5.64554 90.7121 5.02379 91.4762 4.58931C92.2403 4.13986 93.1392 3.91513 94.1729 3.91513C95.0419 3.91513 95.8135 4.08742 96.4877 4.432C97.1768 4.76161 97.6862 5.22605 98.0158 5.82532H98.1506V0H100.082L101.297 1.21475V16.0954H98.4428L98.1506 14.365H98.0158C97.6862 14.9793 97.1768 15.4587 96.4877 15.8033C95.8135 16.1329 95.0419 16.2977 94.1729 16.2977ZM95.2741 13.9605C95.9333 13.9605 96.5101 13.8107 97.0045 13.511C97.5139 13.2114 97.8959 12.7919 98.1506 12.2526V7.93777C97.8959 7.41341 97.5139 7.0014 97.0045 6.70177C96.5101 6.40213 95.9333 6.25231 95.2741 6.25231C94.6748 6.25231 94.158 6.36467 93.7235 6.5894C93.289 6.79915 92.9444 7.10628 92.6897 7.51079C92.45 7.90032 92.3302 8.38723 92.3302 8.97153V11.2413C92.3302 11.7956 92.45 12.2825 92.6897 12.702C92.9444 13.1215 93.289 13.4361 93.7235 13.6459C94.158 13.8556 94.6748 13.9605 95.2741 13.9605Z"
    fill="#F1F7F7"
  />
  <path
    d="M76.3167 16.0954V3.94795H79.1258L79.4404 5.8253H79.5753C80.0247 5.22602 80.5941 4.76158 81.2832 4.43198C81.9724 4.08739 82.7514 3.9151 83.6204 3.9151C84.5942 3.9151 85.4107 4.09488 86.0699 4.45445C86.7291 4.81402 87.2236 5.33089 87.5532 6.00508C87.8977 6.67927 88.07 7.48829 88.07 8.43215V16.0954H84.9238V8.83666C84.9238 8.28233 84.8264 7.81789 84.6317 7.44334C84.4369 7.0688 84.1523 6.79163 83.7777 6.61185C83.4181 6.41708 82.9762 6.3197 82.4518 6.3197C81.7626 6.3197 81.1634 6.4845 80.654 6.8141C80.1446 7.12872 79.7401 7.54073 79.4404 8.05011V16.0954H76.3167Z"
    fill="#F1F7F7"
  />
  <path
    fill-rule="evenodd"
    clip-rule="evenodd"
    d="M69.1795 16.0718C68.2356 16.0718 67.3741 15.9444 66.5951 15.6897C65.831 15.42 65.1793 15.0455 64.6399 14.5661C64.1006 14.0717 63.6811 13.4799 63.3815 12.7907C63.0968 12.1016 62.9545 11.3225 62.9545 10.4535V9.24001C62.9545 8.0864 63.2092 7.09759 63.7185 6.27358C64.2279 5.4346 64.9471 4.79037 65.8759 4.34092C66.8198 3.87648 67.921 3.64426 69.1795 3.64426C70.0934 3.64426 70.9174 3.77909 71.6515 4.04877C72.4006 4.30346 73.0373 4.67052 73.5617 5.14994C74.086 5.62936 74.4906 6.21366 74.7752 6.90283C75.0599 7.57701 75.2022 8.3336 75.2022 9.17259V10.6333H66.1906V11.285C66.1906 11.7944 66.3104 12.2439 66.5501 12.6334C66.8048 13.0229 67.1569 13.3226 67.6064 13.5323C68.0708 13.7421 68.6101 13.8469 69.2244 13.8469C69.9735 13.8469 70.5878 13.7046 71.0672 13.42C71.5616 13.1203 71.8762 12.7083 72.011 12.184H75.0898C74.955 12.993 74.6179 13.6896 74.0785 14.2739C73.5392 14.8432 72.85 15.2852 72.011 15.5998C71.1721 15.9145 70.2282 16.0718 69.1795 16.0718ZM72.011 8.3186C72.011 7.80922 71.8912 7.37474 71.6515 7.01518C71.4267 6.64063 71.1046 6.35597 70.6851 6.16121C70.2656 5.95146 69.7638 5.84659 69.1795 5.84659C68.5652 5.84659 68.0333 5.95895 67.5839 6.18368C67.1344 6.39343 66.7898 6.69306 66.5501 7.08259C66.3104 7.45714 66.1906 7.89911 66.1906 8.40849V8.74559H72.011V8.3186Z"
    fill="#F1F7F7"
  />
  <path
    fill-rule="evenodd"
    clip-rule="evenodd"
    d="M108.659 16.0718C107.715 16.0718 106.854 15.9444 106.074 15.6897C105.31 15.42 104.659 15.0455 104.119 14.5661C103.58 14.0717 103.16 13.4799 102.861 12.7907C102.576 12.1016 102.434 11.3225 102.434 10.4535V9.24001C102.434 8.0864 102.689 7.09759 103.198 6.27358C103.707 5.4346 104.426 4.79037 105.355 4.34092C106.299 3.87648 107.4 3.64426 108.659 3.64426C109.573 3.64426 110.397 3.77909 111.131 4.04877C111.88 4.30346 112.517 4.67052 113.041 5.14994C113.565 5.62936 113.97 6.21366 114.255 6.90283C114.539 7.57701 114.682 8.3336 114.682 9.17259V10.6333H105.67V11.285C105.67 11.7944 105.79 12.2439 106.03 12.6334C106.284 13.0229 106.636 13.3226 107.086 13.5323C107.55 13.7421 108.09 13.8469 108.704 13.8469C109.453 13.8469 110.067 13.7046 110.547 13.42C111.041 13.1203 111.356 12.7083 111.49 12.184H114.569C114.434 12.993 114.097 13.6896 113.558 14.2739C113.019 14.8432 112.329 15.2852 111.49 15.5998C110.651 15.9145 109.708 16.0718 108.659 16.0718ZM111.49 8.3186C111.49 7.80922 111.371 7.37474 111.131 7.01518C110.906 6.64063 110.584 6.35597 110.165 6.16121C109.745 5.95146 109.243 5.84659 108.659 5.84659C108.045 5.84659 107.513 5.95895 107.063 6.18368C106.614 6.39343 106.269 6.69306 106.03 7.08259C105.79 7.45714 105.67 7.89911 105.67 8.40849V8.74559H111.49V8.3186Z"
    fill="#F1F7F7"
  />
  <path
    d="M51.4143 0V16.0955H54.538V12.7149L56.6649 10.6893L60.2012 16.0955H63.8418L58.8705 8.83304L63.7519 3.94794H59.954L54.538 9.2297V1.21475L53.3233 0H51.4143Z"
    fill="#F1F7F7"
  />
  <path
    d="M44.2546 16.3754C43.2957 16.3754 42.4343 16.2481 41.6702 15.9934C40.9061 15.7237 40.2544 15.3417 39.7151 14.8473C39.1757 14.3529 38.7637 13.7611 38.479 13.0719C38.1944 12.3828 38.0521 11.6112 38.0521 10.7572V9.54369C38.0521 8.39008 38.3068 7.40127 38.8161 6.57727C39.3255 5.73828 40.0447 5.09405 40.9735 4.6446C41.9174 4.18016 43.0186 3.94794 44.2771 3.94794C45.4307 3.94794 46.4344 4.13521 47.2884 4.50976C48.1424 4.86933 48.8166 5.3862 49.311 6.06039C49.8204 6.71959 50.1125 7.49116 50.1874 8.3751H47.0187C46.9289 7.67095 46.6367 7.14658 46.1423 6.80199C45.6629 6.45741 45.0411 6.28512 44.2771 6.28512C43.6778 6.28512 43.1534 6.39748 42.704 6.62221C42.2545 6.83196 41.9024 7.1316 41.6477 7.52113C41.408 7.91066 41.2882 8.36761 41.2882 8.89197V11.4314C41.2882 11.9408 41.408 12.3977 41.6477 12.8023C41.9024 13.1918 42.2545 13.4989 42.704 13.7236C43.1534 13.9334 43.6853 14.0383 44.2995 14.0383C44.8089 14.0383 45.2509 13.9634 45.6254 13.8135C46.015 13.6487 46.3296 13.409 46.5693 13.0944C46.809 12.7648 46.9588 12.3678 47.0187 11.9033H50.2099C50.135 12.8023 49.8353 13.5888 49.311 14.263C48.7866 14.9222 48.09 15.4391 47.221 15.8136C46.367 16.1882 45.3782 16.3754 44.2546 16.3754Z"
    fill="#F1F7F7"
  />
  <path
    d="M118.898 5.89272H119.055C119.355 5.21866 119.714 4.73141 120.133 4.43178C120.567 4.1172 121.13 3.96014 121.819 3.9601H122.477V6.85951H121.482C121.032 6.85952 120.657 6.91935 120.358 7.0392C120.058 7.15906 119.796 7.33869 119.572 7.57826C119.347 7.80289 119.13 8.08741 118.92 8.43178V16.0958H115.796V3.9601H118.651L118.898 5.89272Z"
    fill="#F1F7F7"
  />
  <path
    d="M126.638 3.94794H123.601L123.601 9.718C123.601 12.0661 125.504 13.9696 127.853 13.9696H130.889V14.8807C130.889 15.5516 130.346 16.0954 129.675 16.0954H125.727V17.9176L126.941 19.1323H129.675C132.023 19.1323 133.926 17.2288 133.926 14.8807V3.94794H130.889V10.9328H127.853C127.182 10.9328 126.638 10.3889 126.638 9.718V3.94794Z"
    fill="#F1F7F7"
  />
  <path
    fill-rule="evenodd"
    clip-rule="evenodd"
    d="M137.874 3.94794C139.048 3.94794 140 4.8997 140 6.07375C140 7.2478 139.048 8.19956 137.874 8.19956C136.7 8.19956 135.748 7.2478 135.748 6.07375C135.748 4.8997 136.7 3.94794 137.874 3.94794ZM137.874 4.3731C136.935 4.3731 136.174 5.13451 136.174 6.07375C136.174 7.01299 136.935 7.7744 137.874 7.7744C138.813 7.7744 139.575 7.01299 139.575 6.07375C139.575 5.13451 138.813 4.3731 137.874 4.3731Z"
    fill="#F1F7F7"
  />
  <path
    d="M137.024 7.03037V5.11713H138.084C138.233 5.11713 138.356 5.1425 138.454 5.19324C138.553 5.24223 138.627 5.31222 138.676 5.4032C138.727 5.49243 138.752 5.59654 138.752 5.71551C138.752 5.81524 138.734 5.90272 138.697 5.97796C138.661 6.05319 138.608 6.1153 138.54 6.16429C138.474 6.21328 138.394 6.2474 138.302 6.26665L138.289 6.2614L138.299 6.22466L138.831 7.03037H138.194L137.775 6.36375H137.508V5.96746H137.975C138.044 5.96746 138.098 5.95084 138.134 5.9176C138.171 5.8826 138.189 5.83711 138.189 5.78112V5.70239C138.189 5.64465 138.17 5.60004 138.132 5.56854C138.095 5.5353 138.043 5.51868 137.975 5.51868H137.55V7.03037H137.024Z"
    fill="#F1F7F7"
  />
</svg>
